<svg aria-hidden="true" style="position: absolute; width: 0; height: 0; overflow: hidden;" version="1.1" xmlns="http://www.w3.org/2000/svg" xmlns:xlink="http://www.w3.org/1999/xlink">
<defs>
<symbol id="icon-github" viewBox="0 0 32 32">
<path d="M16 0.396c-8.84 0-16 7.164-16 16 0 7.071 4.584 13.067 10.94 15.18 0.8 0.151 1.093-0.344 1.093-0.769 0-0.38-0.013-1.387-0.020-2.72-4.451 0.965-5.389-2.147-5.389-2.147-0.728-1.847-1.78-2.34-1.78-2.34-1.449-0.992 0.112-0.972 0.112-0.972 1.607 0.112 2.451 1.648 2.451 1.648 1.427 2.447 3.745 1.74 4.66 1.331 0.144-1.035 0.556-1.74 1.013-2.14-3.553-0.4-7.288-1.776-7.288-7.907 0-1.747 0.62-3.173 1.647-4.293-0.18-0.404-0.72-2.031 0.14-4.235 0 0 1.34-0.429 4.4 1.64 1.28-0.356 2.64-0.532 4-0.54 1.36 0.008 2.72 0.184 4 0.54 3.040-2.069 4.38-1.64 4.38-1.64 0.86 2.204 0.32 3.831 0.16 4.235 1.020 1.12 1.64 2.547 1.64 4.293 0 6.147-3.74 7.5-7.3 7.893 0.56 0.48 1.080 1.461 1.080 2.96 0 2.141-0.020 3.861-0.020 4.381 0 0.42 0.28 0.92 1.1 0.76 6.401-2.099 10.981-8.099 10.981-15.159 0-8.836-7.164-16-16-16z"></path>
</symbol>
<symbol id="icon-linkedin" viewBox="0 0 32 32">
<path d="M27.263 27.269h-4.739v-7.425c0-1.771-0.036-4.049-2.469-4.049-2.471 0-2.848 1.927-2.848 3.919v7.556h-4.739v-15.269h4.552v2.081h0.061c0.636-1.2 2.183-2.467 4.493-2.467 4.801 0 5.689 3.16 5.689 7.273zM7.116 9.911c-1.525 0-2.751-1.235-2.751-2.753 0-1.517 1.227-2.751 2.751-2.751 1.52 0 2.752 1.233 2.752 2.751 0 1.519-1.233 2.753-2.752 2.753zM9.492 27.269h-4.752v-15.269h4.752zM29.633 0h-27.272c-1.305 0-2.361 1.032-2.361 2.305v27.389c0 1.275 1.056 2.305 2.361 2.305h27.268c1.304 0 2.371-1.031 2.371-2.305v-27.389c0-1.273-1.067-2.305-2.371-2.305z"></path>
</symbol>
<symbol id="icon-gmail" viewBox="0 0 32 32">
<path d="M32 6v20c0 1.133-0.867 2-2 2h-2v-18.151l-12 8.617-12-8.617v18.151h-2c-1.135 0-2-0.867-2-2v-20c0-0.567 0.216-1.067 0.575-1.424 0.359-0.363 0.86-0.576 1.425-0.576h0.667l13.333 9.667 13.333-9.667h0.667c0.567 0 1.067 0.216 1.425 0.576 0.36 0.357 0.575 0.857 0.575 1.424z"></path>
</symbol>
<symbol id="icon-telegram" viewBox="0 0 32 32">
<path d="M31.88 5.053l-4.813 22.733c-0.333 1.613-1.307 2-2.667 1.253l-7.333-5.427-3.547 3.427c-0.4 0.4-0.733 0.747-1.467 0.747-0.96 0-0.8-0.36-1.12-1.267l-2.533-8.253-7.267-2.267c-1.573-0.467-1.587-1.547 0.347-2.333l28.347-10.933c1.293-0.573 2.533 0.32 2.053 2.32z"></path>
</symbol>
<symbol id="icon-minus" viewBox="0 0 192 32">
<path d="M10.664 16c0-5.891 4.776-10.667 10.667-10.667h149.333c5.891 0 10.667 4.776 10.667 10.667s-4.776 10.667-10.667 10.667h-149.333c-5.891 0-10.667-4.776-10.667-10.667z"></path>
</symbol>
<symbol id="icon-plus" viewBox="0 0 32 32">
<path d="M17.777 3.556c0-0.982-0.796-1.778-1.778-1.778s-1.778 0.796-1.778 1.778v10.667h-10.667c-0.982 0-1.778 0.796-1.778 1.778s0.796 1.778 1.778 1.778h10.667v10.667c0 0.982 0.796 1.778 1.778 1.778s1.778-0.796 1.778-1.778v-10.667h10.667c0.982 0 1.778-0.796 1.778-1.778s-0.796-1.778-1.778-1.778h-10.667v-10.667z"></path>
</symbol>
<symbol id="icon-arrow-left" viewBox="0 0 19 32">
<path d="M17.509 1.692c-0.833-0.833-2.184-0.833-3.017 0l-12.8 12.8c-0.833 0.833-0.833 2.184 0 3.017l12.8 12.8c0.833 0.833 2.184 0.833 3.017 0s0.833-2.184 0-3.017l-11.292-11.292 11.292-11.292c0.833-0.833 0.833-2.184 0-3.017z"></path>
</symbol>
<symbol id="icon-arrow-right" viewBox="0 0 19 32">
<path d="M1.692 1.692c0.833-0.833 2.184-0.833 3.017 0l12.8 12.8c0.833 0.833 0.833 2.184 0 3.017l-12.8 12.8c-0.833 0.833-2.184 0.833-3.017 0s-0.833-2.184 0-3.017l11.291-11.292-11.291-11.292c-0.833-0.833-0.833-2.184 0-3.017z"></path>
</symbol>
<symbol id="icon-arrow-down" viewBox="0 0 53 32">
<path d="M50.515 2.819c1.389 1.389 1.389 3.64 0 5.028l-21.333 21.333c-1.389 1.389-3.64 1.389-5.028 0l-21.333-21.333c-1.389-1.389-1.389-3.64 0-5.028s3.64-1.389 5.028 0l18.819 18.819 18.819-18.819c1.389-1.389 3.64-1.389 5.028 0z"></path>
</symbol>
<symbol id="icon-arrow-up" viewBox="0 0 53 32">
<path d="M2.82 29.181c-1.389-1.389-1.389-3.64 0-5.028l21.333-21.333c1.389-1.389 3.64-1.389 5.028 0l21.333 21.333c1.389 1.389 1.389 3.64 0 5.028s-3.64 1.388-5.028-0l-18.819-18.819-18.819 18.819c-1.389 1.389-3.64 1.389-5.028 0z"></path>
</symbol>
</defs>
</svg>
